# xmcd
#
# Track frame offsets: 
#        150
#        10823
#        28093
#        41269
#        54718
#        74530
#        97050
#        121151
#        138842
#        152527
#        174562
#        191639
#        212245
#        231256
#        248222
#        269148
#        288853
#        308628
#
# Disc length: 4388 seconds
#
# Revision: 0
# Processed by: cddbd v1.5.2PL0 Copyright (c) Steve Scherf et al.
# Submitted via: ExactAudioCopyFreeDBPlugin 1.0
#
DISCID=04112212
DTITLE=許樂 陳潔麗 - 許樂 陳潔麗 - 許樂 陳潔麗 閑情雅樂 男女聲二重唱
DYEAR=2003
DGENRE=Folk/Rock
TTITLE0=哎喲媽媽
TTITLE1=暗湧
TTITLE2=星星索
TTITLE3=爸爸的草鞋
TTITLE4=星
TTITLE5=請跟我來
TTITLE6=你知道我在等你嗎
TTITLE7=月亮走我也走
TTITLE8=敖包相會
TTITLE9=你怎麼捨得我難過
TTITLE10=三月裡的小雨
TTITLE11=讓我歡喜讓我憂
TTITLE12=特別的愛給特別的你
TTITLE13=我怎能離開你
TTITLE14=假如我是的
TTITLE15=舊夢啊 何處尋
TTITLE16=情迷
TTITLE17=多少黎明 多少黃昏
EXTD=
EXTT0=
EXTT1=
EXTT2=
EXTT3=
EXTT4=
EXTT5=
EXTT6=
EXTT7=
EXTT8=
EXTT9=
EXTT10=
EXTT11=
EXTT12=
EXTT13=
EXTT14=
EXTT15=
EXTT16=
EXTT17=
PLAYORDER=
